<?xml version="1.0" encoding="us-ascii" standalone="no"?>
<svg xmlns="http://www.w3.org/2000/svg" xmlns:xlink="http://www.w3.org/1999/xlink"
    contentStyleType="text/css" height="402px" preserveAspectRatio="none"
    style="width:279px;height:402px;background:#FFFFFF;" version="1.1" viewBox="0 0 279 402"
    width="279px" zoomAndPan="magnify">
    <defs />
    <g>
        <text fill="#000000" font-family="sans-serif" font-size="14" font-weight="bold"
            lengthAdjust="spacing" textLength="118" x="79" y="35.1074">Feinstaubstation</text>
        <ellipse cx="139.75" cy="59.6211" fill="#222222" rx="10" ry="10"
            style="stroke:#222222;stroke-width:1.0;" />
        <rect fill="#F1F1F1" height="35.9609" rx="12.5" ry="12.5"
            style="stroke:#181818;stroke-width:0.5;" width="154" x="62.75" y="89.6211" />
        <text fill="#000000" font-family="sans-serif" font-size="12" lengthAdjust="spacing"
            textLength="134" x="72.75" y="112.5703">Download der CSV datei</text>
        <rect fill="#F1F1F1" height="35.9609" rx="12.5" ry="12.5"
            style="stroke:#181818;stroke-width:0.5;" width="206" x="36.75" y="145.582" />
        <text fill="#000000" font-family="sans-serif" font-size="12" lengthAdjust="spacing"
            textLength="186" x="46.75" y="168.5313">CSV in die Datenbank importieren</text>
        <rect fill="#F1F1F1" height="35.9609" rx="12.5" ry="12.5"
            style="stroke:#181818;stroke-width:0.5;" width="184" x="47.75" y="201.543" />
        <text fill="#000000" font-family="sans-serif" font-size="12" lengthAdjust="spacing"
            textLength="164" x="57.75" y="224.4922">Eingabe Datum und WerteTyp</text>
        <polygon fill="#F1F1F1"
            points="139.75,257.5039,139.75,257.5039,151.75,269.5039,139.75,281.5039,139.75,281.5039,127.75,269.5039,139.75,257.5039"
            style="stroke:#181818;stroke-width:0.5;" />
        <rect fill="#F1F1F1" height="35.9609" rx="12.5" ry="12.5"
            style="stroke:#181818;stroke-width:0.5;" width="23" x="12.5" y="320.7656" />
        <text fill="#000000" font-family="sans-serif" font-size="12" lengthAdjust="spacing"
            textLength="3" x="22.5" y="343.7148">&#160;</text>
        <rect fill="#F1F1F1" height="35.9609" rx="12.5" ry="12.5"
            style="stroke:#181818;stroke-width:0.5;" width="23" x="99" y="320.7656" />
        <text fill="#000000" font-family="sans-serif" font-size="12" lengthAdjust="spacing"
            textLength="3" x="109" y="343.7148">&#160;</text>
        <rect fill="#F1F1F1" height="35.9609" rx="12.5" ry="12.5"
            style="stroke:#181818;stroke-width:0.5;" width="23" x="208.5" y="320.7656" />
        <text fill="#000000" font-family="sans-serif" font-size="12" lengthAdjust="spacing"
            textLength="3" x="218.5" y="343.7148">&#160;</text>
        <polygon fill="#F1F1F1"
            points="139.75,366.7266,139.75,366.7266,151.75,378.7266,139.75,390.7266,139.75,390.7266,127.75,378.7266,139.75,366.7266"
            style="stroke:#181818;stroke-width:0.5;" />
        <line style="stroke:#181818;stroke-width:1.0;" x1="139.75" x2="139.75" y1="69.6211"
            y2="89.6211" />
        <polygon fill="#181818" points="135.75,79.6211,139.75,89.6211,143.75,79.6211,139.75,83.6211"
            style="stroke:#181818;stroke-width:1.0;" />
        <line style="stroke:#181818;stroke-width:1.0;" x1="139.75" x2="139.75" y1="125.582"
            y2="145.582" />
        <polygon fill="#181818" points="135.75,135.582,139.75,145.582,143.75,135.582,139.75,139.582"
            style="stroke:#181818;stroke-width:1.0;" />
        <line style="stroke:#181818;stroke-width:1.0;" x1="139.75" x2="139.75" y1="181.543"
            y2="201.543" />
        <polygon fill="#181818" points="135.75,191.543,139.75,201.543,143.75,191.543,139.75,195.543"
            style="stroke:#181818;stroke-width:1.0;" />
        <line style="stroke:#181818;stroke-width:1.0;" x1="127.75" x2="24" y1="269.5039"
            y2="269.5039" />
        <line style="stroke:#181818;stroke-width:1.0;" x1="24" x2="24" y1="269.5039" y2="320.7656" />
        <polygon fill="#181818" points="20,310.7656,24,320.7656,28,310.7656,24,314.7656"
            style="stroke:#181818;stroke-width:1.0;" />
        <text fill="#000000" font-family="sans-serif" font-size="11" lengthAdjust="spacing"
            textLength="55" x="24" y="299.6895">Temperatur</text>
        <line style="stroke:#181818;stroke-width:1.0;" x1="151.75" x2="220" y1="269.5039"
            y2="269.5039" />
        <line style="stroke:#181818;stroke-width:1.0;" x1="220" x2="220" y1="269.5039" y2="320.7656" />
        <polygon fill="#181818" points="216,310.7656,220,320.7656,224,310.7656,220,314.7656"
            style="stroke:#181818;stroke-width:1.0;" />
        <text fill="#000000" font-family="sans-serif" font-size="11" lengthAdjust="spacing"
            textLength="47" x="220" y="299.6895">Feinstaub</text>
        <line style="stroke:#181818;stroke-width:1.0;" x1="110.5" x2="110.5" y1="269.5039"
            y2="320.7656" />
        <polygon fill="#181818" points="106.5,310.7656,110.5,320.7656,114.5,310.7656,110.5,314.7656"
            style="stroke:#181818;stroke-width:1.0;" />
        <text fill="#000000" font-family="sans-serif" font-size="11" lengthAdjust="spacing"
            textLength="78" x="110.5" y="294.6895">Luftfeuchtigkeit)</text>
        <line style="stroke:#181818;stroke-width:1.0;" x1="24" x2="24" y1="356.7266" y2="378.7266" />
        <line style="stroke:#181818;stroke-width:1.0;" x1="24" x2="127.75" y1="378.7266"
            y2="378.7266" />
        <polygon fill="#181818"
            points="117.75,374.7266,127.75,378.7266,117.75,382.7266,121.75,378.7266"
            style="stroke:#181818;stroke-width:1.0;" />
        <line style="stroke:#181818;stroke-width:1.0;" x1="220" x2="220" y1="356.7266" y2="378.7266" />
        <line style="stroke:#181818;stroke-width:1.0;" x1="220" x2="151.75" y1="378.7266"
            y2="378.7266" />
        <polygon fill="#181818"
            points="161.75,374.7266,151.75,378.7266,161.75,382.7266,157.75,378.7266"
            style="stroke:#181818;stroke-width:1.0;" />
        <line style="stroke:#181818;stroke-width:1.0;" x1="110.5" x2="110.5" y1="356.7266"
            y2="378.7266" />
        <polygon fill="#181818" points="106.5,368.7266,110.5,378.7266,114.5,368.7266,110.5,372.7266"
            style="stroke:#181818;stroke-width:1.0;" />
        <line style="stroke:#181818;stroke-width:1.0;" x1="139.75" x2="139.75" y1="237.5039"
            y2="257.5039" />
        <polygon fill="#181818"
            points="135.75,247.5039,139.75,257.5039,143.75,247.5039,139.75,251.5039"
            style="stroke:#181818;stroke-width:1.0;" /><!--SRC=[NOwz3eD038FtF4N6yWembdRg1chdWpCG0G4TEQ6-VQy_OgY7oF9dHJQn2No5w6OkDkcOB4fKcGj6URdiEYtEiqVWStLdxmnIKFxsekm5NAP86wSZoxmkmGG1cYeNqTur7nvdZkhvWM2edsj1soxM3dpAg7KR-5HZNX5ICMJ4INdn0xVOMOVO3YRz2B7iZn_BZnpglz_f1G00]-->
    </g>
</svg>